<?xml version="1.0" encoding="UTF-8"?>
<svg id="Layer_1" data-name="Layer 1" xmlns="http://www.w3.org/2000/svg" viewBox="0 0 377.1 193.96">
  <defs>
    <style>
      .cls-1 {
        fill: #192e4e;
        stroke-width: 0px;
      }
    </style>
  </defs>
  <rect class="cls-1" x="21.76" y="9.15" width="6.73" height="127.85"/>
  <rect class="cls-1" x="58.19" y="65.26" width="6.73" height="71.74"/>
  <rect class="cls-1" x="94.45" y="62.98" width="6.73" height="74.02"/>
  <rect class="cls-1" x="239.65" y="62.98" width="6.73" height="74.02"/>
  <rect class="cls-1" x="275.46" y="62.98" width="6.73" height="74.02"/>
  <polygon class="cls-1" points="281.27 133.91 275.65 137.03 240.54 66.11 246.16 62.98 281.27 133.91"/>
  <rect class="cls-1" x="113.78" y="48.87" width="6.73" height="34.95" transform="translate(183.48 -50.8) rotate(90)"/>
  <rect class="cls-1" x="113.14" y="56.59" width="6.73" height="46.04" transform="translate(109.28 -61.31) rotate(52.72)"/>
  <rect class="cls-1" x="113.3" y="88.53" width="6.73" height="53.37" transform="translate(280.28 125.88) rotate(139.08)"/>
  <rect class="cls-1" x="58.19" y="37.21" width="6.73" height="15.33"/>
  <rect class="cls-1" x="32.21" y="29.9" width="6.73" height="16.46" transform="translate(73.71 2.56) rotate(90)"/>
  <g>
    <rect class="cls-1" x="175.83" y="64.02" width="6.73" height="72.96" transform="translate(32.19 -43.03) rotate(15.03)"/>
    <rect class="cls-1" x="194.44" y="64.02" width="6.73" height="72.96" transform="translate(414.89 146.27) rotate(164.97)"/>
    <rect class="cls-1" x="184.91" y="102.53" width="6.73" height="37.04" transform="translate(309.33 -67.23) rotate(90)"/>
    <rect class="cls-1" x="185.41" y="64.4" width="6.16" height="8.61"/>
  </g>
  <g>
    <rect class="cls-1" x="320.67" y="64.02" width="6.73" height="72.96" transform="translate(37.15 -80.59) rotate(15.03)"/>
    <rect class="cls-1" x="339.28" y="64.02" width="6.73" height="72.96" transform="translate(699.62 108.71) rotate(164.97)"/>
    <rect class="cls-1" x="329.76" y="102.53" width="6.73" height="37.04" transform="translate(454.17 -212.07) rotate(90)"/>
    <rect class="cls-1" x="330.25" y="64.4" width="6.16" height="8.61"/>
  </g>
  <g>
    <path class="cls-1" d="m37.21,181.51v2.27c-2.78-.1-5.87-.15-9.28-.15-3.81,0-7.76.05-11.86.15v-2.27c1.92,0,3.24-.11,3.98-.32.34-.1.6-.26.77-.5.25-.37.38-1.08.41-2.12l.15-2.62c.02-.55.04-1.44.04-2.68v-3.86c0-1.75-.07-3.87-.22-6.36-.07-1.26-.18-1.97-.31-2.13-.13-.17-.35-.29-.64-.37-.47-.14-1.85-.24-4.16-.29v-2.27c4.47-.61,7.4-1.06,8.8-1.35s2.98-.77,4.75-1.41l.99.35-.07,5.95c1.6-1.31,2.82-2.4,3.68-3.27,1.28-1.22,2.23-1.99,2.87-2.33.88-.47,2.05-.71,3.5-.71.91,0,1.73.12,2.47.35l-.22,4.18c-.07,2.28-.14,3.58-.18,3.91l-1.55.38c-.61-.65-1.2-1.1-1.77-1.35-.91-.41-1.9-.62-2.98-.62-1.45,0-2.7.36-3.74,1.07-1.04.72-1.66,1.45-1.86,2.19-.1.43-.15,2.09-.15,4.97v2.94l.07,4c.02,1.51.09,2.44.2,2.78.11.34.36.61.75.81.39.2,1.24.33,2.54.41l3.02.24Z"/>
    <path class="cls-1" d="m77.32,179.25l-1.62,2.88c-2.01.98-4.09,1.71-6.23,2.18-1.6.33-3.41.5-5.45.5-2.43,0-4.57-.23-6.43-.68s-3.44-1.07-4.75-1.85c-1.31-.78-2.47-1.75-3.46-2.88-1-1.14-1.71-2.45-2.16-3.94s-.66-3.12-.66-4.89c0-2.57.43-4.87,1.29-6.89.59-1.41,1.28-2.43,2.06-3.06.49-.39,1.77-1.13,3.83-2.21,2.06-1.08,3.56-1.79,4.49-2.12,1.72-.61,3.75-.91,6.08-.91,3.29,0,5.99.55,8.1,1.65,2.11,1.1,3.6,2.5,4.48,4.21.87,1.71,1.31,3.78,1.31,6.21,0,.55-.02,1.08-.07,1.59-.61.16-1.55.33-2.8.53-1.67.25-2.8.39-3.39.41-1.84.12-4.27.19-7.29.21s-4.69.04-5.01.06c-.32.02-.68.03-1.07.03h-2.43c.2,3.1,1.4,5.55,3.61,7.34,2.21,1.79,4.94,2.69,8.18,2.69,1.4,0,2.69-.12,3.87-.37s2.73-.75,4.64-1.52l.88.82Zm-8.77-12.19c.1-3.12-.43-5.31-1.58-6.56-1.18-1.24-2.7-1.85-4.57-1.85s-3.5.65-4.75,1.94c-1.28,1.31-1.87,3.47-1.77,6.48,1.45.18,3.87.27,7.26.27,2.16,0,3.97-.09,5.42-.27Z"/>
    <path class="cls-1" d="m84.8,174.51h2.95c.12,2.2.25,3.58.37,4.15,1.11,1.08,2.32,1.88,3.65,2.4,1.33.52,2.85.78,4.57.78,2.31,0,4.08-.44,5.3-1.32,1.23-.88,1.84-1.95,1.84-3.21,0-.82-.2-1.5-.61-2.04s-1.22-1.04-2.45-1.49c-.96-.27-2.79-.65-5.51-1.12-2.71-.47-4.77-.99-6.17-1.56-1.4-.57-2.49-1.42-3.28-2.55-.79-1.13-1.18-2.45-1.18-3.96,0-2.71,1.28-4.96,3.83-6.75,2.55-1.8,6.23-2.69,11.01-2.69,1.99,0,3.82.14,5.49.41,1.67.27,3.18.69,4.53,1.24l.11.29c-.15.69-.26,1.38-.33,2.09-.07.71-.18,2.37-.33,5l-2.84-.03c-.02-.22-.06-.58-.11-1.09-.07-.88-.22-1.74-.44-2.56-.76-.78-1.7-1.37-2.82-1.77-1.12-.39-2.43-.59-3.92-.59-2.09,0-3.7.37-4.84,1.12-1.14.75-1.71,1.64-1.71,2.68s.26,1.84.77,2.35c.52.51,1.28.89,2.28,1.15,1.01.26,2.87.58,5.58.99,2.71.4,4.54.74,5.47,1.02,1.35.41,2.43.93,3.24,1.56.81.63,1.43,1.41,1.86,2.34.43.93.65,1.96.65,3.08,0,2.92-1.42,5.39-4.25,7.39-2.84,2-6.82,3-11.95,3-1.72,0-3.39-.12-5.01-.37-1.62-.25-3.6-.69-5.93-1.34l-.41-.44c.2-1.51.32-2.58.37-3.21l.22-4.95Z"/>
    <path class="cls-1" d="m116.04,161.38v-1.32l3.32-1.68c.54-.27,1.06-.57,1.55-.88v-3.94c0-1.41-.1-3.16-.29-5.24,2.38-.63,3.93-1.05,4.64-1.27.12-.04,1.68-.62,4.68-1.74l.96.59-.37,3.06-.26,3.38-.33,5.15h1.22c3.27,0,5.73-.1,7.4-.29l-.63,3.97c-.29.04-.57.06-.81.06l-3.61-.06h-3.57v9.83c0,3.02.04,4.81.11,5.36.1.92.51,1.64,1.23,2.16.72.52,1.77.78,3.15.78.83.02,1.5,0,2.01-.04.5-.05,1.15-.14,1.93-.28l.59,1.21-1.33,1.06c-1.08.88-2.03,1.66-2.84,2.33-.96.33-1.81.55-2.56.66-.75.11-1.52.16-2.3.16-2.85,0-5.09-.58-6.72-1.75-1.63-1.17-2.45-2.62-2.45-4.37l.15-9.71v-7.27h-.99c-1.35,0-2.64.03-3.87.09Z"/>
    <path class="cls-1" d="m175.46,181.57v2.21c-2.82-.1-5.33-.15-7.51-.15-2.06,0-4.06.05-6,.15l-.33-.32.33-3.86c-.88.45-3.49,2-7.81,4.65-1.11.2-2.16.29-3.17.29-2.68,0-4.77-.63-6.28-1.88-1.51-1.26-2.26-3.06-2.26-5.42,0-1.59.34-2.89,1.01-3.91.67-1.02,1.4-1.77,2.17-2.25.77-.48,1.97-.95,3.59-1.4,3.88-1.1,8.13-1.96,12.75-2.59.05-2.33-.55-4.11-1.81-5.33-1.28-1.22-3.22-1.82-5.82-1.82-1.06,0-2.06.11-3.02.32-.42.1-.91.29-1.47.59l-1.55,2.97-2.5-.44.22-3.8c1.82-.98,3.55-1.83,5.19-2.56s2.8-1.17,3.46-1.32c.91-.22,2.19-.32,3.83-.32,2.68,0,4.88.31,6.61.93s3.01,1.35,3.83,2.19c.82.84,1.39,1.75,1.69,2.71.31.96.46,2.18.46,3.65,0,.63-.06,2.27-.18,4.92-.07,1.77-.11,3.21-.11,4.33,0,3.49.12,5.61.37,6.36.1.35.29.59.59.71.39.16,1.63.29,3.72.41Zm-13.52-12.01c-2.09.35-4,.78-5.73,1.28s-2.93,1.12-3.59,1.85c-.66.74-.99,1.66-.99,2.78,0,1.26.4,2.23,1.2,2.91.8.69,1.85,1.03,3.15,1.03,1.1,0,2.22-.25,3.33-.76,1.12-.51,1.99-1.16,2.63-1.94v-7.15Z"/>
    <path class="cls-1" d="m179.14,160.17v-2.24c2.11-.1,4.24-.32,6.37-.68,2.14-.35,4.87-.98,8.21-1.88l.52.32c-.34,3.89-.52,7.48-.52,10.77v3.3c0,2.81.08,4.68.26,5.62.25,1.24.83,2.17,1.77,2.8s2.17.94,3.72.94c1.77,0,3.25-.37,4.46-1.1,1.2-.74,2.04-1.5,2.5-2.28.29-.51.44-1.57.44-3.18v-5.03l-.07-4.18c0-1.35-.11-2.17-.33-2.44-.12-.18-.37-.31-.74-.41-.37-.1-1.87-.21-4.49-.32v-2.24c3.81-.39,6.4-.71,7.77-.94,1.38-.24,3.71-.77,7-1.62l.7.32-.41,5.42c-.2,3.85-.29,5.99-.29,6.45v6.03c0,3.59.11,5.81.33,6.65.1.35.28.6.55.74.47.2,1.98.34,4.53.44v2.35l-7.59-.15-6.96.15-.26-.24.22-2.27c.02-.37.04-1.13.04-2.27-.96.61-1.79,1.17-2.5,1.68l-4.16,3.15c-1.69.49-3.4.74-5.12.74-3.32,0-5.92-.73-7.81-2.18-1.89-1.45-2.84-3.38-2.84-5.8,0-.29.04-1.38.11-3.27.02-1,.04-2.3.04-3.89l-.07-6.21c0-1.14-.09-1.84-.28-2.12-.18-.27-.48-.48-.9-.62-.42-.14-1.82-.25-4.2-.32Z"/>
    <path class="cls-1" d="m246.7,181.51v2.27c-2.78-.1-5.87-.15-9.28-.15-3.81,0-7.76.05-11.86.15v-2.27c1.92,0,3.24-.11,3.98-.32.34-.1.6-.26.77-.5.25-.37.38-1.08.41-2.12l.15-2.62c.02-.55.04-1.44.04-2.68v-3.86c0-1.75-.07-3.87-.22-6.36-.07-1.26-.18-1.97-.31-2.13-.13-.17-.35-.29-.64-.37-.47-.14-1.85-.24-4.16-.29v-2.27c4.47-.61,7.4-1.06,8.8-1.35s2.98-.77,4.75-1.41l.99.35-.07,5.95c1.6-1.31,2.82-2.4,3.68-3.27,1.28-1.22,2.23-1.99,2.87-2.33.88-.47,2.05-.71,3.5-.71.91,0,1.73.12,2.47.35l-.22,4.18c-.07,2.28-.14,3.58-.18,3.91l-1.55.38c-.61-.65-1.2-1.1-1.77-1.35-.91-.41-1.9-.62-2.98-.62-1.45,0-2.7.36-3.74,1.07-1.04.72-1.66,1.45-1.86,2.19-.1.43-.15,2.09-.15,4.97v2.94l.07,4c.02,1.51.09,2.44.2,2.78.11.34.36.61.75.81.39.2,1.24.33,2.54.41l3.02.24Z"/>
    <path class="cls-1" d="m288.62,181.57v2.21c-2.82-.1-5.33-.15-7.51-.15-2.06,0-4.06.05-6,.15l-.33-.32.33-3.86c-.88.45-3.49,2-7.81,4.65-1.11.2-2.16.29-3.17.29-2.68,0-4.77-.63-6.28-1.88-1.51-1.26-2.26-3.06-2.26-5.42,0-1.59.34-2.89,1.01-3.91.67-1.02,1.4-1.77,2.17-2.25.77-.48,1.97-.95,3.59-1.4,3.88-1.1,8.13-1.96,12.75-2.59.05-2.33-.55-4.11-1.81-5.33-1.28-1.22-3.22-1.82-5.82-1.82-1.06,0-2.06.11-3.02.32-.42.1-.91.29-1.47.59l-1.55,2.97-2.5-.44.22-3.8c1.82-.98,3.55-1.83,5.19-2.56s2.8-1.17,3.46-1.32c.91-.22,2.19-.32,3.83-.32,2.68,0,4.88.31,6.61.93s3.01,1.35,3.83,2.19c.82.84,1.39,1.75,1.69,2.71.31.96.46,2.18.46,3.65,0,.63-.06,2.27-.18,4.92-.07,1.77-.11,3.21-.11,4.33,0,3.49.12,5.61.37,6.36.1.35.29.59.59.71.39.16,1.63.29,3.72.41Zm-13.52-12.01c-2.09.35-4,.78-5.73,1.28s-2.93,1.12-3.59,1.85c-.66.74-.99,1.66-.99,2.78,0,1.26.4,2.23,1.2,2.91.8.69,1.85,1.03,3.15,1.03,1.1,0,2.22-.25,3.33-.76,1.12-.51,1.99-1.16,2.63-1.94v-7.15Z"/>
    <path class="cls-1" d="m334.88,181.51v2.27c-3.34-.14-6.07-.21-8.18-.21-2.43,0-4.54.07-6.34.21l-.66-.53c.05-.41.21-2.11.48-5.09l.18-4.83v-2.33c0-3.43-.17-5.69-.5-6.77-.33-1.08-1.01-1.95-2.04-2.6-1.03-.66-2.41-.99-4.13-.99s-3.14.33-4.27.99c-1.13.66-1.84,1.32-2.14,1.99-.17.39-.25,1.96-.22,4.71v4.94c0,1.43.05,3.19.15,5.27.02.92.12,1.53.29,1.83.12.22.28.37.48.47.29.16.87.3,1.73.44.29.04,1.33.12,3.09.24v2.27c-2.68-.08-5.96-.12-9.84-.12-4.49,0-7.98.04-10.46.12v-2.27c1.92,0,3.24-.11,3.98-.32.34-.1.6-.26.77-.5.25-.37.38-1.08.41-2.12l.15-2.62c.02-.55.04-1.44.04-2.68v-3.86c0-1.75-.07-3.87-.22-6.36-.07-1.26-.18-1.97-.31-2.13-.13-.17-.35-.29-.64-.37-.47-.14-1.85-.24-4.16-.29v-2.27c4.47-.61,7.4-1.06,8.8-1.35,1.4-.29,2.98-.77,4.75-1.41l.99.35v4.74l6.7-4.3c.81-.25,1.49-.43,2.04-.52s1.32-.13,2.3-.13c2.63,0,4.6.24,5.91.71,1.31.47,2.43,1.13,3.33,1.99s1.55,1.75,1.92,2.68c.37.93.55,2.39.55,4.37,0,2.24-.02,3.66-.07,4.27-.02.24-.04.52-.04.85l.04,3.03c.02,3.32.09,5.37.2,6.15.11.79.33,1.29.66,1.52.33.23,1.06.37,2.19.43.42.02,1.1.07,2.06.15Z"/>
    <path class="cls-1" d="m338.13,161.38v-1.32l3.32-1.68c.54-.27,1.06-.57,1.55-.88v-3.94c0-1.41-.1-3.16-.29-5.24,2.38-.63,3.93-1.05,4.64-1.27.12-.04,1.68-.62,4.68-1.74l.96.59-.37,3.06-.26,3.38-.33,5.15h1.22c3.27,0,5.73-.1,7.4-.29l-.63,3.97c-.29.04-.57.06-.81.06l-3.61-.06h-3.57v9.83c0,3.02.04,4.81.11,5.36.1.92.51,1.64,1.23,2.16.72.52,1.77.78,3.15.78.83.02,1.5,0,2.01-.04.5-.05,1.15-.14,1.93-.28l.59,1.21-1.33,1.06c-1.08.88-2.03,1.66-2.84,2.33-.96.33-1.81.55-2.56.66-.75.11-1.52.16-2.3.16-2.85,0-5.09-.58-6.72-1.75-1.63-1.17-2.45-2.62-2.45-4.37l.15-9.71v-7.27h-.99c-1.35,0-2.64.03-3.87.09Z"/>
  </g>
</svg>